<?xml version="1.0" standalone="no"?>
<!DOCTYPE svg PUBLIC "-//W3C//DTD SVG 20010904//EN"
 "http://www.w3.org/TR/2001/REC-SVG-20010904/DTD/svg10.dtd">
<svg version="1.0" xmlns="http://www.w3.org/2000/svg"
 width="23.000000pt" height="37.000000pt" viewBox="0 0 23.000000 37.000000"
 preserveAspectRatio="xMidYMid meet">

<g transform="translate(0.000000,37.000000) scale(0.100000,-0.100000)"
fill="#000000" stroke="none">
<path d="M0 185 l0 -185 115 0 115 0 0 185 0 185 -115 0 -115 0 0 -185z m161
86 c16 -16 29 -40 29 -53 0 -30 -67 -138 -85 -138 -18 0 -85 108 -85 138 0 32
52 82 85 82 16 0 38 -12 56 -29z"/>
<path d="M62 258 c-17 -17 -15 -73 3 -88 8 -7 26 -13 40 -13 36 0 55 21 55 57
0 40 -16 56 -55 56 -17 0 -36 -5 -43 -12z m73 -43 c0 -27 -3 -30 -30 -30 -21
0 -31 5 -33 18 -6 33 6 49 35 45 24 -3 28 -8 28 -33z"/>
</g>
</svg>
