<svg version="1.0" xmlns="http://www.w3.org/2000/svg" width="373.333" height="105.333" viewBox="0 0 280 79"><path d="M0 23.5v22.6l3.5-.3 3.5-.2-2.2-2.3C2.7 41 2.7 41 4.7 41c1.1 0 2.6-.6 3.2-1.4 1.1-1.3 1.5-1.2 3.1.4 1 1 3.5 2.2 5.5 2.6 4.4.8 2.8 2.4-2.4 2.4-2.8 0-3.1.2-2.2 1.4.9 1.1.9 1.5-.1 1.9-.7.3.3.6 2.2.6 4 .1 5.4-.6 6.3-3.2.3-.9 1.5-1.7 2.6-1.7s2.3-.5 2.6-1c.3-.6 1.6-.8 2.8-.5 3.8.9 17.6 1.2 18.9.4.9-.6.2-1.2-1.9-2-1.8-.6-3.3-1.3-3.3-1.6 0-1.1 4.3-4.2 5.1-3.7.5.3 1.7 0 2.6-.5 1.2-.7 1.4-1 .4-1.1-1 0-1.2-1.2-.9-5.3.3-2.8.9-6.1 1.3-7.1.8-1.7.5-1.9-3.3-1.3-2.3.3-5.1.3-6.2 0-2.5-.7-2-2.9.5-2.5 1 .2 1.4-.1 1-.7-.3-.6-1.3-1.1-2.2-1.1-1.3 0-1.3-.3-.3-1.5.7-.8 1.9-1.5 2.8-1.5.8 0 2.3-.7 3.3-1.6 1.3-1.2 2.2-1.3 3.8-.5 3.9 2.1 5.9 1.3 7.9-3.3 1.1-2.4 2.6-4.7 3.3-5.2 1.1-.6 1.2-.5.2.7-.7.8-1 3.3-.7 6.2.3 2.6.1 4.7-.4 4.7-1.2 0-2.2 4.9-1.1 5.5.9.6 2-.5 5.2-5.4 1.4-2.3 3.4-3.8 5.6-4.4l3.5-.9-3.3-3c-1.8-1.6-3-3.2-2.7-3.5.8-.8 4.3 1.5 5.9 4 1.3 2.1 1.4 3.1.4 6.3-1.4 4.6-4.5 8-6.9 7.6-1.3-.2-1.6.1-1.2 1.2.3.9.9 1.6 1.4 1.6.4 0 2.1 2.3 3.9 5.1l3.2 5.2 6.2-.5C90.4 32 93 29.3 93.6 19.4c.4-5.8.2-6.3-1.8-7-1.3-.5-2.6-.7-2.9-.6-.4.1-.9-1-1.2-2.4-.4-2.3-.2-2.5 2-1.9 1.8.4 2.3.2 1.7-.6-.5-.9-.2-1 1.2-.5 1.7.6 1.7.5.4-.8-.8-.8-4-1.7-7-2-8.7-.7-8.9-.9-1.5-1.6 3.9-.4-13.6-.7-38.7-.8L0 1v22.5zM2.3 43c.3 1.1.1 2-.4 2s-.9-.9-.9-2 .2-2 .4-2 .6.9.9 2zM139.8 1.7c1.6.3 2.2 1.1 2.2 3.2 0 5.3 2.6 6.9 12.6 7.5 22.4 1.3 28 1.7 29.3 2.2.8.2 4.1.2 7.3-.2 5.2-.6 5.8-.9 5.8-2.9 0-4.4-6.7-6.4-10.8-3.2-.9.7-1.1.6-.6-.8.6-1.5.3-1.6-1.7-1-2 .6-2.2.5-1.1-.6.6-.7 1.2-2.1 1.2-3.1 0-1.7-1.5-1.8-23.2-1.7-12.8.1-22.3.4-21 .6zm79.3 0c1.1.3 1.5 1.2 1.1 2.8-.5 2.7-2.9 3.3-6.2 1.5-2.3-1.2-3.1.5-3.7 7.7-.4 4.7 0 5.8 2.9 10 1.8 2.6 3.6 5.2 4 5.7.6.9 2.4 1.3 8.1 1.5.9.1 1.7.8 1.7 1.7 0 1-.6 1.4-1.5 1-.9-.3-1.5 0-1.5 1 0 1.1-.5 1.4-1.6 1-1.9-.7-5.4 2-5.4 4.1 0 .7-.5 1.3-1 1.3-.6 0-1.4.8-1.7 1.7-1 2.6-6.6 7.2-8.9 7.3-2.1 0-10.4-5.6-10.4-7.1 0-.4-.9-1.3-2-1.9-2.2-1.2-12.1 1.2-15.1 3.7-.8.7-2.1 1.3-2.7 1.3-.6 0-1.6.9-2.2 2-1 2-.8 2 12 2h13v7l-12.2.1c-6.8.1-12.9.1-13.5 0-.7-.1-1.3.3-1.3.9 0 .5.3 1 .8 1.1.4 0 1.7.2 3 .3 1.2.2 3.1 1.2 4.3 2.4 2.5 2.8 7.9 5.7 10 5.4.9-.2 3.8.7 6.5 1.9s6.5 2.1 8.4 2.1c5.1-.1 1.5 1.7-4.6 2.3-4.6.5-7.4 1.5-4.2 1.5.9 0 1.8.7 2.2 1.5.5 1.3 6 1.5 41.6 1.5h41V1l-31.2.1c-17.2.1-30.6.3-29.7.6z"/><path d="M206.9 6.7c-.1.4-.1 1.1 0 1.5 0 .5-.6.8-1.5.8-.8 0-1.3.4-.9 1 .3.5 1.2.7 2 .4 1.7-.7 2.7-3.2 1.5-3.9-.6-.4-1.1-.3-1.1.2zM56.2 17c-.7 1.1-.8 2-.3 2 .9 0 2.4-3 1.8-3.6-.1-.2-.8.6-1.5 1.6zm-12.1.4c.2.2 2.4.6 4.9.9 3 .4 3.8.3 2.5-.3-1.9-.8-8.3-1.4-7.4-.6zM147 23.9c5.2.9 5 3.1-.2 3.1-2.4 0-5 .5-5.8 1.1-1.1.8-.1.9 3.7.6 2.9-.2 5.6 0 6 .4.4.4 2.7 1.1 5 1.5 3.5.5 4.3.3 5.2-1.5.7-1.2.8-2.1.4-2-2.9.5-5.1-.4-5.6-2.1-.4-1.7-1.3-2-6.4-1.9-4.8.2-5.2.3-2.3.8zm8 1.6c0 .8-.7 1.5-1.5 1.5s-1.5-.7-1.5-1.5.7-1.5 1.5-1.5 1.5.7 1.5 1.5zM137 28c0 .5.5 1 1.1 1 .5 0 .7-.5.4-1-.3-.6-.8-1-1.1-1-.2 0-.4.4-.4 1zm-84.5 6c.4.6 1.1.8 1.6.5 1.4-.9 1.1-1.5-.7-1.5-.8 0-1.2.5-.9 1zm7.2 15.1c.7.7 1.5 1 1.8.7.3-.3-.2-.9-1.2-1.2-1.4-.6-1.5-.5-.6.5zm13.7 2.8c.4.6 1.6 1.6 2.8 2.2 1.5.8 1.8.8 1.4 0-.4-.6-1.6-1.6-2.8-2.2-1.5-.8-1.8-.8-1.4 0zm-7 1.7c.9.8 1.4 2 1.1 2.5-.4.5.1.6.9.3s2.4-.1 3.5.6c1.4.7 2.1.7 2.1.1s-1.8-2-4-3.1c-4.7-2.4-5.7-2.5-3.6-.4zm19.7 2.2c.3 1.9-.3 2.2-2.3 1.1-2.1-1.1-2.2-1.1-.9.4 1.7 2.2 7.8 2.3 7.8.2 0-.8-.3-1.5-.6-1.6-.3 0-1.4-.2-2.3-.4-1-.2-1.7 0-1.7.3z"/><path d="M93.1 56.7c.5 3.2-.2 3.8-4 3.5-3.7-.4-3.8-.3-3.4 2.2.3 1.4 0 3.3-.7 4.1-1 1.2-.6 1.3 2.7.8 2.6-.3 4.9-1.7 7.6-4.3 2.1-2.2 3.3-4.1 2.7-4.5-.5-.3-1.4-.3-2 0-.5.3-1-.1-1-.9 0-.9-.4-1.6-1-1.6-.5 0-.9.3-.9.7zm3.3 3.5c-.3.4-.9.8-1.5.8-.5 0-.9-.4-.9-.8 0-.5.7-.9 1.5-.9s1.2.4.9.9zm-37.6.1c-1.6.6-2.8 1.4-2.8 1.9 0 1.2 1.1.9 5-1.2 3.7-2 2.3-2.5-2.2-.7zm-55 .4c.7.3 1.6.2 1.9-.1.4-.3-.2-.6-1.3-.5-1.1 0-1.4.3-.6.6zm74.4 1.5c-1.7 1.7-1.5 2.5.8 3.1 1.5.4 2 0 2-1.3 0-2.4-1.4-3.2-2.8-1.8zM0 71.7V78h21.1c12.7 0 20.8-.4 20.4-.9-.3-.5.4-1.6 1.6-2.5 2.2-1.5 2.2-1.5-.7-2.2-1.6-.4-3.4-1.1-4.1-1.6-1.1-.9-5.7-.7-16 .7-2.3.3-3.8-.1-5-1.4-1.9-1.9-7.7-3.6-6.7-1.9.4.6-.2.8-1.2.6-1.1-.2-1.8-1-1.7-1.6.3-1.2-.3-1.4-4.9-1.6C0 65.4 0 65.5 0 71.7zM4 68c0 .5-.7 1-1.5 1S1 68.5 1 68c0-.6.7-1 1.5-1s1.5.4 1.5 1zm62 2.4c0 1.3-.4 1.6-1.2.9-.9-.6-2.2-.5-3.8.3-2.4 1.3-2.2 1.4 2.7 1.4 2.8 0 5.8-.3 6.7-.6 2.4-.9 1.9-2.3-.5-1.7-1.2.4-2.5 0-3-.8-.7-1.1-.9-1-.9.5zm84-.6c-2.1.7-5 4.5-4.5 5.9.5 1.6-1.5 1.7-3.5.2-1.3-.9-1.2-1 .3-.5 1.2.4 1.7 0 1.7-1.3 0-2.5-4.7-1.6-5.5 1-.7 2.1-2.1 2.5-2.7.8-.2-.7-.9-.5-1.7.5-1.2 1.5.2 1.6 17 1.5 10.1-.1 17.2-.4 15.7-.8-1.5-.3-4.8-2.1-7.5-4-4.8-3.5-6.7-4.1-9.3-3.3zm-75.5 2.1c1.2 1.1 4.1 2.1 7 2.4 2.8.3 4.2.3 3.2 0-1.1-.2-2.7-1.3-3.8-2.4-1.1-1.1-3.3-1.9-5.1-1.9-3.2 0-3.2 0-1.3 1.9zm106 4c.3.6-1.4 1.2-3.7 1.4-2.4.2.7.4 6.7.5l11 .1-5-1.4c-5.9-1.7-9.9-1.9-9-.6zM43.8 77.7c.6.2 1.8.2 2.5 0 .6-.3.1-.5-1.3-.5-1.4 0-1.9.2-1.2.5z"/></svg>