<?xml version="1.0" encoding="utf-8"?>
<!DOCTYPE svg PUBLIC "-//W3C//DTD SVG 20010904//EN" "http://www.w3.org/TR/2001/REC-SVG-20010904/DTD/svg10.dtd">
<svg version="1.0" xmlns="http://www.w3.org/2000/svg" width="172px" height="172px" viewBox="0 0 172 172" preserveAspectRatio="xMidYMid meet">
 <g fill="#222b3b">
  <path d="M100.4 113 l-51 -0.5 -3.2 -2.7 c-2.3 -1.9 -3.2 -3.5 -3.2 -5.7 l0 -3.1 51.5 0 51.5 0 0 -37 c0 -24 -0.4 -37 -1 -37 -0.5 0 -1 -1.6 -1 -3.5 l0 -3.5 -9.5 0 -9.5 0 0 -5.5 c0 -5.8 0.5 -6.6 2.6 -3.7 1 1.4 3.1 1.8 10.8 2 8.5 0.4 9.6 0.6 9.6 2.2 0 1 -0.6 2.1 -1.2 2.3 -0.7 0.3 0.6 0.6 2.9 0.6 2.3 0.1 4.5 0.6 4.9 1.3 0.4 0.6 0.6 4.2 0.5 7.9 -0.2 5.4 0.2 7.7 1.9 10.6 2 3.7 2 4.9 1.8 39.8 l-0.3 36 -3.5 0 c-1.9 0.1 -26.5 -0.2 -54.6 -0.5z"/>
  <path d="M13 75.6 c0 -32 0.1 -33.6 2.1 -37 1.6 -2.8 2 -4.9 1.8 -10.9 -0.1 -4.1 0.1 -7.9 0.5 -8.6 0.4 -0.6 2.4 -1.1 4.5 -1.1 3.5 0 3.8 -0.2 3.3 -2.5 l-0.4 -2.5 8.1 0 c6.2 0 9.1 -0.5 12.1 -2 3.8 -1.9 5.6 -2 40.7 -1.8 l36.8 0.3 0.3 5.3 0.3 5.2 -47 0 -47.1 0 0 3.5 c0 2.4 -0.5 3.5 -1.5 3.5 -1.3 0 -1.5 5 -1.5 39.3 l0 39.3 -3.5 1.7 c-2 0.9 -4.9 1.7 -6.5 1.7 l-3 0 0 -33.4z"/>
  <path d="M58.7 89.2 c-5.5 -5.5 -6.7 -7.3 -6.7 -10 l0 -3.2 12.6 0 12.6 0 -0.4 6.8 c-0.4 8.6 -3.3 13.2 -8.1 13.2 -2.7 0 -4.5 -1.2 -10 -6.8z"/>
  <path d="M84 43 l0 -7 7 0 7.1 0 -0.3 6.8 -0.3 6.7 -6.7 0.3 -6.8 0.3 0 -7.1z"/>
 </g>
 <g fill="#f15525">
  <path d="M23.1 153.9 c-1.8 -0.6 -3.5 -1.8 -3.8 -2.8 -0.3 -1.1 -1.7 -2.1 -3.1 -2.5 -3 -0.6 -7.2 -6 -9 -11.5 -1.3 -3.8 -1.6 -10.1 -0.4 -10.1 0.4 0 0.6 -2 0.4 -4.5 -0.4 -4.3 -0.3 -4.5 2.2 -4.5 2.5 0 2.6 -0.3 2.6 -5 0 -4.7 0.2 -5 2.5 -5 1.4 0 2.5 -0.4 2.5 -1 0 -0.5 1.6 -1 3.5 -1 2.4 0 3.5 0.5 3.5 1.5 0 0.8 0.5 1.5 1 1.5 0.6 0 1 1.8 1 4 0 2.2 -0.4 4 -1 4 -0.5 0 -1 1.6 -1 3.5 0 2.8 -0.4 3.5 -2 3.5 -1.5 0 -2 0.7 -2 2.5 0 2.3 0.4 2.5 4 2.5 3.9 0 4 0.1 4 3.5 0 3.3 -0.2 3.5 -3.5 3.5 -1.9 0 -3.5 0.5 -3.5 1 0 0.6 1.1 1 2.5 1 2.2 0 2.5 0.4 2.5 3.5 0 2.8 0.4 3.5 2 3.5 1.3 0 2 -0.7 2 -2 0 -1.6 0.7 -2 3.5 -2 2.5 0 3.5 -0.4 3.5 -1.6 0 -1.3 0.8 -1.5 4 -1.2 2.7 0.2 4 0 4 -0.9 0 -0.9 -1.4 -1 -5 -0.6 l-5 0.6 0 -4.2 0 -4.1 6 0 6 0 0 3.5 c0 1.9 0.5 3.5 1 3.5 0.6 0 1 -1.8 1 -4 0 -3.6 -0.2 -4 -2.5 -4 -1.6 0 -2.5 -0.6 -2.5 -1.5 0 -0.9 -1 -1.5 -2.6 -1.5 -2.4 0 -2.6 -0.3 -2.2 -4 0.2 -2.8 0 -4 -0.9 -4 -1.7 0 -1.7 -6 0 -8.2 0.7 -0.9 3.3 -1.9 5.7 -2.2 3.9 -0.5 4.9 -0.3 7.3 1.8 2 1.8 2.7 3.4 2.7 6.1 0 2.7 0.4 3.5 1.8 3.5 4.4 0 6.6 13.7 2.8 17.5 -0.9 0.9 -1.6 3.2 -1.6 5.1 0 2.4 -0.5 3.4 -1.5 3.4 -0.8 0 -1.5 0.8 -1.5 1.8 0 2.6 -2 4.2 -5.1 4.2 -1.8 0 -2.8 0.6 -3.1 1.8 -0.4 1.4 -1.8 2.1 -5.3 2.5 -6.4 0.9 -13.3 0.7 -17.4 -0.4z m-7.1 -22.4 c0 -1.4 -0.4 -2.5 -1 -2.5 -0.5 0 -1 1.1 -1 2.5 0 1.4 0.5 2.5 1 2.5 0.6 0 1 -1.1 1 -2.5z"/>
  <path d="M43.5 100.6 c-4 -1.8 -7.9 -5.6 -10 -9.7 -2.3 -4.3 -3 -14.2 -1.6 -19.7 2.4 -8.6 11 -15.2 20.1 -15.2 l5 0 0 9.7 c0 7.6 0.4 10 1.7 11.5 1.5 1.7 1.5 1.8 -1.3 1.8 -2.8 0 -2.6 0.2 4.1 7 5.5 5.5 7.2 6.7 8.3 5.8 1.1 -1 1.3 -0.6 1 2.3 -0.3 2.9 -0.9 3.7 -4.8 5.7 -5.2 2.6 -17.4 3 -22.5 0.8z"/>
  <path d="M117 33.5 c0 -14 0.2 -16.5 1.5 -16.5 2.3 0 1.8 -4.1 -0.6 -4.7 -1.5 -0.4 -1.9 -1.1 -1.5 -2.7 0.3 -1.1 0.6 -2.4 0.6 -2.8 0 -0.4 0.7 -0.5 1.5 -0.2 1.1 0.5 1.5 -0.1 1.5 -2.5 0 -2.9 0.3 -3.1 3.5 -3.1 3.3 0 3.5 0.2 3.5 3.4 0 6.6 1.2 12.6 2.6 12.6 1.1 0 1.4 3.2 1.4 16.5 l0 16.5 -7 0 -7 0 0 -16.5z"/>
 </g>
 <g fill="#fe6c3b">
  <path d="M24.3 154.3 c-0.7 -0.2 -1.3 -1.1 -1.3 -1.9 0 -0.9 -1 -1.4 -2.8 -1.4 -4.7 0 -11.6 -8.2 -13.3 -15.6 -1.6 -7.2 -0.4 -20 2.1 -21.7 1 -0.7 2.4 -2.5 3.1 -4.1 0.8 -1.7 2.3 -2.9 4.1 -3.3 1.5 -0.3 3.3 -1.2 3.9 -1.9 0.9 -1 4.1 -1.4 12.7 -1.4 l11.5 0 4.5 3.7 c2.4 2 5.8 4.9 7.5 6.4 l3.1 2.8 0 11.3 c-0.1 12.9 -0.7 15.8 -3.5 15.8 -1 0 -1.9 0.7 -1.9 1.5 0 0.8 -0.7 1.5 -1.5 1.5 -0.9 0 -1.5 0.9 -1.5 2.4 0 2.6 -2.8 3.6 -10.1 3.6 -2 0 -4.4 0.7 -5.3 1.5 -1.4 1.4 -8.6 2 -11.3 0.8z m7.5 -4.6 c0.2 -1 -0.3 -1.7 -1.2 -1.7 -1 0 -1.6 0.9 -1.6 2.1 0 2.4 2.3 2.1 2.8 -0.4z m10 0.8 c2.8 -1 0.9 -2.4 -3 -2.2 -4 0.2 -5.7 1.1 -5.8 3 0 0.7 5.5 0.2 8.8 -0.8z m-13.8 -0.4 c0 -0.5 -1.3 -1.4 -3 -2 -3.2 -1.1 -3.3 -1 -2.4 1.3 0.6 1.7 5.4 2.3 5.4 0.7z m22 -4.6 c0.7 -0.9 1 -1.9 0.6 -2.2 -0.8 -0.9 -3.8 0.9 -4.4 2.5 -0.5 1.7 2.3 1.5 3.8 -0.3z m-34.4 -1.8 c-0.3 -1.4 0.1 -3.3 1.1 -4.8 l1.7 -2.4 -2.2 1.9 c-1.2 1.1 -2.2 1.5 -2.2 1.1 0 -0.5 -0.2 -0.6 -0.5 -0.3 -0.6 0.6 1.4 6.8 2.2 6.8 0.3 0 0.3 -1 -0.1 -2.3z m37.9 -3.7 c-0.3 -0.5 -1.7 -1 -3.1 -1 -1.3 0 -2.4 0.5 -2.4 1 0 0.6 1.4 1 3.1 1 1.7 0 2.8 -0.4 2.4 -1z m-42.9 -3.2 c-1.8 -2.6 -2.2 -1.7 -0.5 1.4 0.6 1.1 1.3 1.7 1.6 1.5 0.3 -0.3 -0.2 -1.6 -1.1 -2.9z m44.4 -4.3 c0 -0.8 -0.7 -1.5 -1.5 -1.5 -1.6 0 -2 1.2 -0.8 2.3 1.1 1.2 2.3 0.8 2.3 -0.8z m2.3 -2.4 c0.3 -1.4 0 -1.7 -1.4 -1.4 -1.4 0.4 -1.5 0.8 -0.6 1.9 1.5 1.7 1.4 1.7 2 -0.5z m-1.6 -6.6 c-1.3 -2.7 -3.7 -3.4 -3.7 -1 0 0.8 0.7 1.5 1.6 1.5 0.8 0 1.2 0.5 0.9 1 -0.3 0.6 0 1 0.8 1 1.3 0 1.3 -0.4 0.4 -2.5z m-5.9 -7.8 c0.6 0.3 1.2 -0.2 1.2 -1.1 0 -2.2 -2.2 -2 -4.3 0.4 -2.2 2.6 -2.2 3.7 0.1 1.8 0.9 -0.9 2.3 -1.3 3 -1.1z"/>
 </g>
 <g fill="#21d8de">
  <path d="M20 105 c0 -0.6 0.7 -1.3 1.5 -1.6 1.3 -0.5 1.5 -5.9 1.5 -40 0 -34.4 0.2 -39.4 1.5 -39.4 0.8 0 1.5 -0.7 1.5 -1.5 0 -0.8 0.7 -1.5 1.5 -1.5 1.3 0 1.5 5.3 1.5 41.9 0 37.3 -0.2 42 -1.6 42.5 -2.5 1 -7.4 0.7 -7.4 -0.4z"/>
  <path d="M144 62.5 c0 -36.2 0.2 -41.5 1.5 -41.5 0.8 0 1.5 0.7 1.5 1.5 0 0.8 0.5 1.5 1 1.5 0.7 0 1 14 1 40 l0 40 -2.5 0 -2.5 0 0 -41.5z"/>
 </g>
 <g fill="#ffd55c">
  <path d="M75.1 170 c-9.5 -1.3 -19.6 -4.6 -28.1 -9.2 -4.1 -2.2 -8.5 -4.5 -9.7 -5.2 -2.7 -1.3 -3 -3.6 -0.5 -3.6 3 0 12.6 -5.5 13.8 -7.8 0.6 -1.3 1.9 -2.8 2.9 -3.5 2 -1.5 3.7 -9.3 3.5 -15.9 l-0.1 -4.8 8.2 0 8.2 0 -0.7 8.8 c-0.3 4.8 -0.9 9.9 -1.2 11.5 l-0.6 2.7 15.2 0 15.3 0 -0.7 -3.7 c-0.4 -2.1 -1 -7.3 -1.3 -11.5 l-0.6 -7.8 26.9 -0.2 26.9 -0.3 0.5 -4.8 c0.3 -2.6 1 -4.7 1.5 -4.7 0.6 0 1.2 -13.2 1.5 -36.6 l0.5 -36.5 3.7 6.3 c11.5 19.8 14.2 46.7 6.9 68.9 -9.2 27.6 -31.8 48.8 -59.7 55.9 -8.8 2.3 -23.7 3.2 -32.3 2z"/>
  <path d="M6.7 117.3 c-0.2 -1.6 -1.5 -6.4 -2.7 -10.8 -1.8 -6.4 -2.3 -10.6 -2.3 -21 0 -15.9 2.1 -24.6 9 -38.5 l4.8 -9.5 0.3 34.2 c0.2 29.8 0.4 34.2 1.7 33.7 2.3 -0.9 1.9 3.3 -0.5 4.6 -1.1 0.6 -2 1.6 -2 2.3 -0.1 1.5 -5.6 7.7 -6.9 7.7 -0.5 0 -1.1 -1.2 -1.4 -2.7z"/>
  <path d="M50.5 8.5 c15.5 -7.5 37.1 -9.9 54 -6.1 12 2.7 15.5 4.3 15.5 7.2 l0 2.4 -38.2 -0.1 -38.3 -0.1 7 -3.3z"/>
 </g>
 <g fill="#cccac7">
  <path d="M101.3 48.3 l-6.3 -0.4 0 -11.4 0 -11.5 6 0 6 0 0 3 c0 3 0.1 3 5.5 3 l5.5 0 0 9 0 9 -5.2 -0.2 c-2.9 -0.1 -8.1 -0.3 -11.5 -0.5z"/>
 </g>
 <g fill="#d8d7d5">
  <path d="M79.8 136.2 c-7.9 -6.3 -9.7 -8.2 -9.7 -10.4 -0.1 -1.8 -0.6 -2.8 -1.6 -2.8 -0.8 0 -1.5 -0.7 -1.5 -1.5 0 -1.3 2.8 -1.5 19 -1.5 16.2 0 19 0.2 19 1.5 0 0.8 -0.7 1.5 -1.5 1.5 -1.8 0 -1.8 2.1 -0.1 11.9 0.7 4 2 7.7 2.7 8.2 0.9 0.5 -2.1 0.9 -7.6 0.8 l-9 0 -9.7 -7.7z"/>
  <path d="M83.6 98.9 c-1.6 -8.1 -1.9 -7.9 10.4 -7.9 9.1 0 11 0.3 11 1.5 0 1.2 1.8 1.5 10 1.5 l10 0 0 4 0 4 -20.4 0 -20.3 0 -0.7 -3.1z"/>
  <path d="M83.7 88.3 c-0.4 -0.3 -0.7 -2.1 -0.7 -4 l0 -3.3 25 0 25 0 0 4 0 4 -24.3 0 c-13.4 0 -24.7 -0.3 -25 -0.7z"/>
  <path d="M83.7 75.3 c-0.4 -0.3 -0.7 -2.1 -0.7 -4 l0 -3.3 14.5 0 14.5 0 0 4 0 4 -13.8 0 c-7.6 0 -14.2 -0.3 -14.5 -0.7z"/>
  <path d="M39 46.5 c0 -3.3 0.2 -3.5 3.5 -3.5 3.3 0 3.5 0.2 3.5 3.5 0 3.3 -0.2 3.5 -3.5 3.5 -3.3 0 -3.5 -0.2 -3.5 -3.5z"/>
  <path d="M91 48.6 c0 -0.8 0.8 -1.6 1.8 -1.8 1.5 -0.3 1.7 -1.7 1.7 -11.3 l0 -11 6.3 -0.3 6.2 -0.3 0 3.1 c0 3 0 3 5.5 3 l5.5 0 0 3.5 c0 2.4 -0.5 3.5 -1.5 3.5 -0.8 0 -1.5 -0.7 -1.5 -1.5 0 -1 -1 -1.5 -3 -1.5 l-3.1 0 0.3 5.7 c0.3 5.4 0.4 5.6 3.1 5.7 2.5 0.2 2.7 -0.1 2.7 -3.6 0 -3.1 0.4 -3.8 2 -3.8 1.7 0 2 0.7 2 4.9 0 4.5 -0.2 5 -3 6.1 -1.7 0.7 -4.3 0.9 -6.2 0.6 -7.2 -1.5 -11.8 -1.8 -11.8 -0.7 0 0.6 -1.6 1.1 -3.5 1.1 -2.4 0 -3.5 -0.5 -3.5 -1.4z m13 -6.2 c1.1 -2.8 1.3 -8.7 0.4 -12.1 -0.5 -1.7 -1.4 -2.3 -3.5 -2.3 l-2.9 0 0 8.5 c0 8.4 0 8.5 2.5 8.5 1.8 0 2.8 -0.7 3.5 -2.6z"/>
  <path d="M128 34 l0 -14.1 5.8 0.3 5.7 0.3 0.3 13.8 0.3 13.7 -6.1 0 -6 0 0 -14z"/>
  <path d="M31.7 40.3 c-0.4 -0.3 -0.7 -2.1 -0.7 -4 l0 -3.3 12.5 0 12.5 0 0 4 0 4 -11.8 0 c-6.5 0 -12.2 -0.3 -12.5 -0.7z"/>
  <path d="M31.6 27.9 c-0.3 -1.7 -0.6 -4.2 -0.6 -5.5 l0 -2.4 13 0 13 0 0 4 c0 3.3 -0.3 4 -2 4 -1.2 0 -2 0.7 -2 1.6 0 1.4 -0.8 1.6 -4.7 1.1 -2.6 -0.3 -4.9 -1 -5.1 -1.6 -0.6 -1.7 -4.2 -1.3 -4.2 0.4 0 1 -1 1.5 -3.4 1.5 -3 0 -3.4 -0.4 -4 -3.1z"/>
 </g>
 <g fill="#fadcd0">
 </g>
 <g fill="#e5e4e4">
  <path d="M65 144.1 c0 -0.5 0.6 -1.1 1.3 -1.4 0.8 -0.3 1.8 -3.8 2.6 -8.7 0.7 -4.5 1.5 -8.8 1.8 -9.6 0.3 -0.9 -0.2 -1.4 -1.5 -1.4 -1.5 0 -1.9 -0.5 -1.5 -2 0.5 -1.9 1.4 -2 18.4 -2 17.2 0 17.9 0.1 17.9 2 0 1.9 -0.7 2 -16.1 2 -9.1 0 -15.9 0.4 -15.7 0.9 0.2 0.5 4.9 4.5 10.5 9 10 8 10.2 8.1 15.8 8.1 5.1 0 8.5 1.4 8.5 3.4 0 0.3 -9.4 0.6 -21 0.6 -11.7 0 -21 -0.4 -21 -0.9z"/>
  <path d="M119 100.9 c0 -0.9 -5 -1 -18 -0.7 l-18 0.5 0.1 -16.9 0 -16.8 14.5 0 c12.1 0 14.4 0.2 14.4 1.5 0 1.3 2.1 1.5 13.3 1.5 14.7 0 15.7 0.4 15.7 5.7 l0 3.3 -5.7 0.1 c-4.5 0 -5.3 0.2 -3.5 0.9 1.8 0.8 2.2 1.7 2.2 5 0 3.8 -0.2 4 -3 4 -2.7 0 -3 0.3 -3 3 0 1.7 -0.4 3 -1 3 -0.5 0 -1 1.6 -1 3.5 0 3.3 -0.2 3.5 -3.5 3.5 -1.9 0 -3.5 -0.5 -3.5 -1.1z m3 -2.9 c0 -0.6 -6.5 -1 -17.5 -1 -11 0 -17.5 0.4 -17.5 1 0 0.6 6.5 1 17.5 1 11 0 17.5 -0.4 17.5 -1z m-23 -3 c0 -0.5 -2.1 -1 -4.6 -1 -2.7 0 -4.3 0.4 -3.9 1 0.3 0.6 2.4 1 4.6 1 2.1 0 3.9 -0.4 3.9 -1z m26.8 -7.7 c-1 -0.2 -2.8 -0.2 -4 0 -1.3 0.2 -0.5 0.4 1.7 0.4 2.2 0.1 3.2 -0.1 2.3 -0.4z m4.2 -2.3 c0 -0.6 -8 -1 -22.1 -1 -14.4 0 -21.8 0.3 -21.4 1 0.4 0.6 8.8 1 22.1 1 13.6 0 21.4 -0.4 21.4 -1z m-21 -13 c0 -0.6 -4.5 -1 -11.6 -1 -7.4 0 -11.3 0.4 -10.9 1 0.4 0.6 5.3 1 11.6 1 6.6 0 10.9 -0.4 10.9 -1z"/>
  <path d="M74 81.5 l0 -2.5 -10 0 -10 0 0 -10 c0 -8.5 -0.2 -10 -1.6 -10 -3 0 -0.7 -2.5 2.6 -2.8 5.5 -0.6 9.8 0.7 13.6 4 4.1 3.6 5.9 6.9 6.9 12.1 0.4 2 1.1 3.7 1.6 3.7 0.5 0 0.9 1.8 0.9 4 0 3.3 -0.3 4 -2 4 -1.5 0 -2 -0.7 -2 -2.5z"/>
  <path d="M35.8 50.3 l-4.8 -0.4 0 -15.5 0 -15.4 13 0 13 0 0 3.4 c0 2.8 -0.4 3.5 -2.2 3.9 -1.3 0.2 1.6 0.5 6.5 0.6 l8.7 0.1 0 3.5 0 3.5 -7.2 0.1 c-4 0.1 -6.5 0.3 -5.6 0.6 0.9 0.2 2 1.3 2.3 2.4 0.5 1.4 1.6 1.9 4.1 1.9 3.3 0 3.4 0.1 3.4 4 l0 4 -10 0 c-9.3 0 -10 0.1 -10 2 0 2.1 -0.1 2.1 -11.2 1.3z m17.2 -13.3 c0 -0.6 -3.9 -1 -9.6 -1 -6.1 0 -9.3 0.4 -8.9 1 0.3 0.6 4.6 1 9.6 1 5.3 0 8.9 -0.4 8.9 -1z m1 -13 c0 -0.6 -4 -1 -10.1 -1 -6.4 0 -9.8 0.4 -9.4 1 0.3 0.6 4.8 1 10.1 1 5.6 0 9.4 -0.4 9.4 -1z"/>
  <path d="M102.8 49.3 c-5.4 -0.2 -9.8 -0.8 -9.8 -1.3 0 -0.6 0.5 -1 1 -1 0.6 0 1 -1.8 1 -4 0 -2.2 -0.5 -4 -1 -4 -0.7 0 -1 -2.9 -0.8 -7.7 l0.3 -7.8 7 0 7 0 0.3 3.8 c0.2 2 0.7 3.7 1.3 3.7 0.5 0 0.9 -0.4 0.9 -1 0 -0.5 1.4 -1 3 -1 2.5 0 3 -0.4 3 -2.5 0 -1.5 -0.6 -2.5 -1.4 -2.5 -1.3 0 -2.6 -2.8 -2.6 -5.7 0 -0.8 1.5 -1.3 4 -1.3 l4 0 -0.1 14.6 c0 11.2 0.3 14.9 1.3 15.5 1 0.7 0.9 0.9 -0.4 0.9 -1 0 -1.8 0.5 -1.8 1 0 0.6 -1.5 0.9 -3.2 0.8 -1.8 -0.1 -7.7 -0.4 -13 -0.5z m11.2 -3.8 c0.9 0 1.5 -0.9 1.4 -2.2 -0.3 -11 -0.1 -10.5 -3.6 -10.1 -3.2 0.3 -3.3 0.4 -3.6 5.8 -0.3 4.3 0.1 5.7 1.4 6.7 1 0.7 2 1 2.3 0.5 0.3 -0.4 1.3 -0.7 2.1 -0.7z m-10 -9.6 l0 -9 -3.2 0.3 -3.3 0.3 -0.3 8.8 -0.3 8.7 3.6 0 3.5 0 0 -9.1z"/>
  <path d="M126.5 48 c-0.3 -0.5 -0.1 -1 0.4 -1 0.7 0 1.1 -5.1 1.1 -15 l0 -15 3 0 c1.7 0 3 0.4 3 0.9 0 0.6 1.5 1.1 3.3 1.3 l3.2 0.3 0 14.5 0 14.5 -6.7 0.3 c-3.8 0.2 -6.9 -0.1 -7.3 -0.8z m10.3 -13.7 l-0.3 -10.8 -2.7 0 c-1.6 0 -2.8 0.3 -2.8 0.8 0 0.4 0 5.2 0 10.7 l0 10 3 0 3.1 0 -0.3 -10.7z"/>
 </g>
 <g fill="#cff3ee">
  <path d="M141 101.5 c0 -1.4 0.5 -2.5 1 -2.5 0.6 0 1 -13.7 1 -39 0 -38.3 0 -39 2 -39 2 0 2 0.7 2 41.5 l0 41.5 -3 0 c-2.5 0 -3 -0.4 -3 -2.5z"/>
 </g>
 <g fill="#fafafa">
  <path d="M21.5 153.1 c-4.8 -2.2 -10.7 -8 -13.2 -13 -1.3 -2.7 -1.8 -5.9 -1.8 -12.6 0 -7.6 0.4 -9.6 2.3 -12.7 3.1 -5 9.2 -10.3 13.6 -11.8 l3.6 -1.2 0 -42.4 0 -42.4 44.6 0 c43.3 0 44.6 0.1 45.1 1.9 0.3 1.1 1.2 2.1 2.1 2.3 1.2 0.2 1.6 2 1.7 8.3 0.1 4.4 0.3 10.1 0.4 12.8 l0.1 4.7 4 0 4 0 0.2 -9.2 0.2 -9.3 0.5 8.5 0.6 8.5 4 0 4 0 0 -11.5 0 -11.5 -4.2 -0.3 c-3.5 -0.3 -4.3 -0.7 -4.3 -2.2 0 -2.5 2.8 -3.2 10.9 -2.8 l6.3 0.3 0.2 42.2 c0.1 33.3 -0.2 42.3 -1.1 42.3 -0.7 0 -1.3 0.5 -1.3 1 0 0.7 -17 1 -49 1 l-49.1 0 3.4 3 3.4 3 51.7 0 51.7 0.1 -0.3 6.2 -0.3 6.2 -42 0 c-23.1 0 -44.6 0.1 -47.7 0.3 l-5.8 0.2 0 4.3 c0 10.6 -6.3 21.2 -15.2 25.8 -5.1 2.6 -17.7 2.6 -23.3 0z m10.5 -22.9 c0 -15.6 -0.3 -22.1 -1.2 -23 -1.6 -1.6 -6.3 -1.5 -7.7 0.2 -0.6 0.7 -2.5 1.6 -4.1 2 -2.1 0.4 -3.4 1.4 -4.1 3.3 -0.5 1.5 -1.9 3.3 -3 4.1 -1.3 0.9 -1.9 2.3 -1.8 4.1 0.1 1.4 -0.4 3.9 -1.1 5.4 -1.1 2.3 -1.1 3.2 -0.1 4.8 0.6 1.1 0.9 2.9 0.6 3.9 -0.4 1.3 0.2 2.8 1.7 4.3 1.3 1.3 2.8 3.5 3.5 5 0.7 1.6 2.3 2.9 4 3.3 1.5 0.3 3.3 1.2 3.8 1.9 1.2 1.4 2.6 1.9 6.5 2.2 l3 0.2 0 -21.7z m11.1 19.2 c0.8 -0.8 2.2 -1.4 2.9 -1.4 2 0 5 -3.1 5 -5.2 0 -1 0.7 -1.8 1.5 -1.8 2.7 0 5.8 -11.2 4.2 -15.1 -0.5 -1.3 -0.9 -3.6 -0.8 -5.1 0.2 -1.9 -0.5 -3.1 -2.3 -4.3 -1.4 -1 -2.6 -2.2 -2.6 -2.8 0 -1.7 -3.2 -4.7 -5 -4.7 -1 0 -2.3 -0.7 -3 -1.5 -1.9 -2.3 -6.6 -1.9 -8.4 0.7 -1.3 1.9 -1.6 5.8 -1.6 23 l0 20.8 4.3 -0.6 c2.3 -0.4 4.9 -1.3 5.8 -2z m19.5 -52.3 c2.2 -1 5.4 -3.5 7.1 -5.6 3.3 -3.9 6 -11.7 4.3 -12.3 -0.6 -0.2 -1 -0.9 -1 -1.5 0 -3.6 -2.6 -9.3 -5.6 -12.7 -7.6 -8.4 -20.1 -7.8 -28.2 1.4 -11 12.6 -2 32.5 14.8 32.5 2.5 0 6.3 -0.8 8.6 -1.8z m60.4 0.4 c0 -1.2 -1.8 -1.5 -10.5 -1.5 -9.8 0 -10.5 -0.1 -10.5 -2 0 -1.9 0.7 -2 11.8 -2.1 7.6 -0.1 10.1 -0.4 7.2 -0.8 -2.5 -0.3 -11.4 -0.5 -19.8 -0.3 l-15.2 0.3 0.2 3.2 c0.1 1.8 0.3 3.5 0.5 4 0.2 0.4 8.5 0.7 18.4 0.7 15.2 0 17.9 -0.2 17.9 -1.5z m-11 -10 c-1.1 -1.3 0 -1.5 9 -1.5 7.7 0 10.1 -0.3 9.8 -1.2 -0.3 -0.8 -2.6 -1.4 -5.6 -1.6 -4.3 -0.3 -5.2 -0.6 -5.2 -2.2 0 -1.4 0.9 -2 3.8 -2.3 2 -0.2 -5.7 -0.4 -17.1 -0.5 l-20.8 -0.2 0.3 5.5 0.3 5.5 13.4 0 c11.7 0 13.2 -0.2 12.1 -1.5z m25 -13 c-1 -1.2 -4 -1.5 -14.6 -1.5 -11.2 0 -13.4 -0.2 -13.4 -1.5 0 -1.2 -2 -1.5 -11.6 -1.5 -10.2 0 -11.5 0.2 -11 1.6 0.3 0.9 0.6 2.2 0.6 3 0 1.2 4.2 1.4 25.6 1.4 22.7 0 25.5 -0.2 24.4 -1.5z m-82.9 -30.5 c5.4 0 9.9 -0.3 9.9 -0.7 0 -0.5 -6.7 -0.7 -15 -0.5 -14 0.3 -15 0.4 -15 2.2 0 1.5 0.9 1.9 4.8 2.2 3.8 0.2 4.8 0 5 -1.4 0.3 -1.6 1.6 -1.8 10.3 -1.8z m40.9 -1 l0 -4 -4 0 -4 0 0 4 0 4 4 0 4 0 0 -4z m21 2.8 c0 -0.5 0.8 -0.9 1.8 -0.9 1.6 -0.1 1.6 -0.2 0 -0.6 -1.4 -0.4 -1.8 -1.5 -1.8 -5.8 0 -5.9 -0.8 -6.6 -5.7 -5.3 -3.2 0.8 -3.3 1 -3.3 6.4 0 4.5 0.3 5.6 1.9 6.2 2.6 0.9 7.1 0.9 7.1 0z m-11.2 -9.5 l-0.3 -9.8 -4 0 -4 0 -0.3 9.8 -0.3 9.7 4.6 0 4.6 0 -0.3 -9.7z m-48.4 3.2 c-0.4 -0.8 -1.2 -1.5 -2 -1.5 -0.8 0 -1.4 -0.7 -1.4 -1.5 0 -0.9 -0.9 -1.5 -2.5 -1.5 -1.8 0 -2.5 -0.5 -2.5 -2 0 -1.8 0.8 -2 9.8 -2.3 6.4 -0.2 4 -0.4 -7.1 -0.5 l-16.8 -0.2 0.3 5.5 0.3 5.5 11.2 0 c9.6 0 11.2 -0.2 10.7 -1.5z m-6.4 -13.1 c0 -0.8 0.9 -1.4 2 -1.4 1.1 0 2 -0.7 2 -1.5 0 -1.2 -1.8 -1.5 -10 -1.5 -9.8 0 -10 0 -9.6 2.3 0.3 1.2 0.5 2.6 0.5 3 0.1 0.4 3.5 0.7 7.6 0.6 5.5 -0.1 7.5 -0.5 7.5 -1.5z"/>
  <path d="M57 145.1 c0 -0.6 0.5 -1.3 1.2 -1.7 1.6 -1 46.8 -2.1 46.8 -1.1 0 0.4 2 0.7 4.4 0.7 3 0 4.6 0.5 5 1.5 0.5 1.3 -3.1 1.5 -28.4 1.5 -17.5 0 -29 -0.4 -29 -0.9z"/>
 </g>
</svg>