<svg id="Capa_1" enable-background="new 0 0 512.002 512.002" height="200" viewBox="0 0 512.002 512.002" width="200" xmlns="http://www.w3.org/2000/svg"><g><path d="m460.2 504.5-23.081-87.533c-2.02-7.662-2.678-15.619-1.943-23.508l2.901-31.137c3.375-36.219-9.438-72.077-35.001-97.957l-43.728-44.27-34.689 51.633 41.343 142.486-3.41 48.986 9.354 41.3z" fill="#d5985c"/><path d="m437.119 416.967c-2.02-7.661-2.678-15.619-1.943-23.508l2.901-31.137c3.375-36.219-9.438-72.077-35.001-97.957l-43.728-44.269-8.292 12.342 31.537 31.927c25.563 25.88 38.375 61.737 35.001 97.957l-2.901 31.137c-.735 7.889-.078 15.846 1.943 23.508l23.081 87.533h-67.77 88.253z" fill="#c38959"/><path d="m51.803 504.5 33.664-102.717c3.178-9.698 4.54-19.898 4.018-30.09l-3.254-63.458c-1.204-23.478 5.821-46.641 19.865-65.494l43.877-58.905 47.491 32.297-25.241 180.045-10.803 108.322z" fill="#d5985c"/><path d="m197.462 216.132-26.72-18.171-20.771-14.126-8.538 11.462c3.003 8.093 5.751 16.186 8.257 24.281 1.631 5.267.89 10.982-2.01 15.671l-14.067 22.745c-4.069 6.58-1.039 15.237 6.246 17.842l39.071 13.973c.595-2.901 1.41-5.758 2.468-8.537l10.968-28.802.877-6.257z" fill="#c38959"/><path d="m149.972 183.836-5.353 7.185 36.924 25.111-25.241 180.046-10.801 108.322h15.919l10.801-108.322 25.241-180.046z" fill="#c38959"/><path d="m303.036 93.174 3.21-12.42c2.697-10.435 11.163-18.384 21.747-20.419 5.933-1.141 11.985 1.297 15.471 6.232 3.308 4.683 3.737 10.818 1.113 15.916l-15.864 30.825z" fill="#e2a770"/><path d="m278.268 83.119 10.104-29.787c1.41-4.157 4.67-7.425 8.823-8.846l2.417-.827c4.839-1.655 10.194-.572 14.009 2.834 4.121 3.679 5.725 9.42 4.108 14.702l-7.697 25.15z" fill="#f1b986"/><path d="m242.249 82.077 8.883-38.663c1.24-5.396 4.913-9.912 9.944-12.224l2.927-1.345c5.861-2.694 12.718-2.016 17.939 1.771 5.64 4.091 8.384 11.09 7.028 17.924l-6.454 32.538h-40.267z" fill="#e2a770"/><path d="m205.328 82.077v-23.412l10.81-32.586c1.065-3.21 2.978-6.072 5.537-8.284l.933-.806c8.199-7.086 20.679-5.769 27.218 2.872 2.239 2.959 3.592 6.514 3.769 10.221.769 16.085-1.449 33.59-5.556 51.995z" fill="#f1b986"/><path d="m352.149 132.377c-3.641-28.769-28.195-50.3-57.194-50.3h-70.761c-7.943 0-14.335-6.469-14.302-14.412.037-9.16-.267-18.32-.915-27.48-1.3-18.38-16.472-32.686-34.899-32.686-21.649 0-37.94 19.449-34.47 40.817 4.058 24.984 3.378 48.578-2.04 76.559-2.833 11.912-1.792 24.766 3.299 36.489 27.05 62.295 39.536 124.645 37.535 187.052-.904 28.195 12.367 55.24 36.009 70.629 13.323 8.672 29.176 13.645 46.014 13.645h10.654c43.293 0 79.631-32.753 83.969-75.829 7.537-74.827 6.57-149.656-2.899-224.484z" fill="#f1b986"/><g fill="#e2a770"><path d="m189.472 40.185c.648 9.16.952 18.32.915 27.48-.032 7.943 6.359 14.411 14.302 14.411h19.505c-7.943 0-14.335-6.469-14.302-14.411.037-9.16-.267-18.32-.915-27.48-1.3-18.38-16.472-32.686-34.899-32.686-3.41 0-6.687.484-9.775 1.381 13.788 4.001 24.108 16.291 25.169 31.305z"/><path d="m352.149 132.377c-3.641-28.77-28.195-50.3-57.194-50.3h-19.505c28.999 0 53.553 21.53 57.194 50.3 9.469 74.828 10.436 149.657 2.901 224.485-4.188 41.583-38.198 73.537-79.496 75.703 1.452.075 2.909.126 4.377.126h10.654c43.293 0 79.631-32.753 83.969-75.829 7.536-74.828 6.569-149.657-2.9-224.485z"/></g><path d="m157.628 419.226c23.79-32.083 36.634-70.966 36.634-110.907v-3.991c0-6.695 1.221-13.334 3.604-19.591l22.077-70.569c2.654-6.97.451-14.855-5.432-19.44-7.987-6.225-19.611-4.122-24.911 4.506l-47.425 75.007z" fill="#d5985c"/><path d="m214.511 194.728c-5.311-4.139-12.222-4.577-17.821-1.882 1.049.511 2.065 1.133 3.026 1.882 5.882 4.584 8.086 12.47 5.432 19.44l-22.077 70.569c-2.383 6.257-3.604 12.896-3.604 19.591v3.991c0 26.379-5.607 52.294-16.266 76.095-4.833 10.79-6.872 22.622-5.619 34.379l.046.433c23.79-32.083 36.634-70.966 36.634-110.907v-3.991c0-6.695 1.221-13.334 3.604-19.591l22.077-70.569c2.654-6.97.451-14.856-5.432-19.44z" fill="#c38959"/><path d="m378.838 473.073-11.322-12.234c-27.322-29.523-39.183-70.168-32.029-109.752.801-4.433-.177-9.003-2.723-12.72l-46.56-67.968c-5.254-7.669-3.718-18.09 3.525-23.918 6.89-5.544 16.806-5.186 23.278.84l56.727 52.813z" fill="#d5985c"/><g><path d="m95.019 333.176c-.212-4.138-3.733-7.339-7.875-7.106-4.136.212-7.318 3.737-7.106 7.874l1.955 38.134c.478 9.306-.752 18.515-3.654 27.369l-33.663 102.717c-1.29 3.937.855 8.173 4.791 9.463 3.961 1.296 8.18-.877 9.463-4.791l33.664-102.718c3.479-10.615 4.953-21.654 4.38-32.81z"/><path d="m467.451 502.588-23.08-87.533c-4.226-16.027-.556-25.753 1.174-52.037 3.589-38.521-9.945-76.399-37.133-103.924l-41.705-42.222c-1.163-28.54-3.531-57.095-7.118-85.437-1.605-12.684-6.848-24.136-14.584-33.392l6.242-12.128c3.919-7.612 3.284-16.684-1.655-23.674-5.025-7.118-14.092-11.293-24.108-9.027-.846-4.672-3.201-9.043-6.867-12.315-10.802-9.643-22.888-3.703-23.417-3.657-1.711-4.601-4.736-8.71-8.853-11.697-7.402-5.371-17.164-6.336-25.475-2.516l-.905.416c-3.097-10.024-11.897-17.274-22.34-18.376-12.383-1.317-22.943 6.488-27.294 15.427-7.514-12.31-21.043-20.496-36.254-20.496-26.293 0-46.079 23.619-41.873 49.52.672 4.138 1.22 8.376 1.63 12.6.399 4.123 4.062 7.153 8.189 6.74 4.123-.4 7.141-4.066 6.74-8.189-.441-4.542-1.031-9.103-1.754-13.555-2.737-16.859 10.103-32.116 27.068-32.116 14.354 0 26.397 11.295 27.417 25.715.601 8.488.934 17.712.896 26.919-.049 12.122 9.709 21.943 21.802 21.943h70.761c25.208 0 46.597 18.805 49.753 43.741 5.894 46.579 8.47 93.741 7.7 140.438l-34.291-31.925c-9.14-8.508-23.365-9.021-33.091-1.194-10.23 8.232-12.432 23.167-5.01 34l18.612 27.171c2.341 3.418 7.007 4.291 10.426 1.949 3.417-2.341 4.29-7.009 1.949-10.426l-18.612-27.172c-3.021-4.408-2.125-10.485 2.039-13.836 3.958-3.184 9.747-2.976 13.466.486l56.728 52.813c3.05 2.842 7.796 2.632 10.6-.379 2.822-3.031 2.653-7.777-.379-10.6l-7.751-7.216c.486-16.129.578-32.323.273-48.543l30.373 30.75c24.066 24.364 36.047 57.894 32.869 91.991-1.59 25.871-5.876 37.789-.742 57.253l23.08 87.533c1.052 3.992 5.145 6.4 9.164 5.34 4.005-1.055 6.397-5.158 5.34-9.163zm-129.542-423.537-4.262 8.282c-4.215-3.112-8.816-5.716-13.702-7.751l2.862-9.349c12.088-7.276 18.401 2.411 15.102 8.818zm-60.371-41.365c3.26 2.365 4.859 6.445 4.076 10.395l-5.256 26.497h-19.11c2.398-12.525 3.705-23.919 3.948-34.434.872-.883 1.88-1.619 3.011-2.139 1.145-.28 7.136-4.815 13.331-.319zm-60.146 30.009c.027-6.693-.135-13.448-.468-20.168l6.332-19.087c1.446-4.359 6.696-9.104 12.796-8.454 5.887.621 9.816 5.537 10.05 10.454.697 14.585-1.252 29.859-4.141 44.137h-17.768c-3.772 0-6.817-3.072-6.801-6.882zm74.258 6.882c2.051-10.155 3.444-17.713 3.825-18.836 1.404-4.142 5.436-4.403 6.565-4.985 2.272-.778 4.795-.267 6.587 1.332 1.93 1.724 2.688 4.437 1.931 6.911l-5.037 16.455c-7.085-1.164-11.751-.814-13.871-.877z"/><path d="m373.021 455.745c-25.579-27.64-36.852-66.265-30.153-103.325 1.159-6.417-.232-12.913-3.917-18.291l-10.518-15.354c-2.34-3.418-7.01-4.291-10.426-1.949-3.418 2.341-4.29 7.009-1.949 10.426l10.518 15.354c1.44 2.102 1.983 4.64 1.53 7.146-3 16.601-2.784 33.48.37 49.748-14.613 16.356-35.386 25.689-57.396 25.689h-10.654c-31.141 0-60.149-18.538-70.655-49.997 13.571-36.928 11.836-69.017 11.991-70.866 0-5.805 1.047-11.498 3.113-16.922.054-.142.104-.285.148-.43l22.016-70.371c3.715-10.051.552-21.192-7.917-27.794-11.619-9.053-28.37-5.784-35.861 6.414l-14.147 22.375c-5.844-20.246-13.346-40.754-21.365-59.223-4.349-10.015-5.372-21.296-2.882-31.767.024-.103.047-.206.067-.31 2.352-12.148 3.799-23.342 4.424-34.221.237-4.135-2.922-7.68-7.058-7.917-4.135-.249-7.68 2.922-7.918 7.058-.583 10.158-1.939 20.652-4.146 32.079-3.188 13.56-1.856 28.132 3.754 41.052 2.64 6.081 5.145 12.184 7.514 18.298l-41.424 55.613c-12.716 17.071-20.083 37.327-21.304 58.577-.237 4.136 2.922 7.681 7.058 7.918.146.009.292.013.437.013 3.945 0 7.251-3.081 7.481-7.069 1.052-18.312 7.4-35.768 18.358-50.478l35.549-47.724c4.064 11.786 7.597 23.573 10.588 35.29l-22.411 35.445c-2.213 3.501-1.17 8.134 2.331 10.347 3.502 2.216 8.134 1.169 10.348-2.331l47.476-75.089c2.99-4.868 9.488-5.964 13.91-2.517 3.306 2.577 4.525 6.939 3.033 10.856-.152.399.843-2.723-22.161 70.789-2.662 7.069-4.011 14.483-4.011 22.04-.36 2.299 4.121 57.457-35.158 110.431-2.467 3.327-1.77 8.024 1.557 10.491 1.343.996 2.909 1.477 4.461 1.476 1.458 0 2.902-.427 4.14-1.245l-7.804 78.275c-.411 4.122 2.597 7.796 6.719 8.207 4.119.413 7.796-2.597 8.207-6.719l10.664-106.95c.727-1.391 1.442-2.788 2.135-4.196 16.133 29.797 46.987 46.093 78.744 46.093h10.654c23.052 0 44.97-8.565 61.788-23.84 4.577 13.876 11.38 27.027 20.223 38.848l11.541 50.958c.921 4.068 4.963 6.571 8.971 5.658 4.04-.915 6.573-4.932 5.658-8.971l-5.493-24.254c2.876 2.648 7.293 2.646 10.164-.011 3.04-2.813 3.225-7.559.411-10.599z"/><path d="m243.419 227.595c4.142 0 7.5-3.357 7.5-7.5v-23.209c0-13.715-6.844-26.399-18.307-33.93-13.539-8.894-31.034-8.895-44.571-.005l-14.938 9.808c-3.463 2.273-4.427 6.924-2.153 10.386 2.273 3.464 6.923 4.427 10.386 2.153l14.938-9.808c8.536-5.605 19.566-5.604 28.102.003 7.228 4.748 11.542 12.745 11.542 21.393v23.209c.001 4.142 3.359 7.5 7.501 7.5z"/><path d="m276.294 233.107c8.363-7.167 20.49-8.46 30.177-3.216l7.755 4.196c3.645 1.97 8.194.616 10.166-3.027 1.971-3.643.615-8.194-3.027-10.166l-7.755-4.195c-15.108-8.177-34.027-6.161-47.075 5.018-13.081 11.208-17.926 28.979-12.344 45.275l5.133 14.986c1.343 3.919 5.607 6.006 9.526 4.665 3.919-1.343 6.007-5.607 4.665-9.526l-5.134-14.986c-3.578-10.446-.473-21.839 7.913-29.024z"/></g></g></svg>