<svg id="Layer_1" enable-background="new 0 0 512 512" height="200" viewBox="0 0 512 512" width="200" xmlns="http://www.w3.org/2000/svg"><g><g id="XMLID_5301_"><g id="XMLID_5303_"><path d="m253.581 512c-13.432 0-24.322-10.889-24.322-24.322v-194.403c0-13.432 10.889-24.322 24.322-24.322s24.322 10.889 24.322 24.322v194.403c-.001 13.433-10.89 24.322-24.322 24.322z" fill="#ffb69e"/></g><g id="XMLID_5302_"><path d="m312.724 512c-13.432 0-24.322-10.889-24.322-24.322v-194.403c0-13.432 10.889-24.322 24.322-24.322 13.432 0 24.322 10.889 24.322 24.322v194.403c0 13.433-10.889 24.322-24.322 24.322z" fill="#ffb69e"/></g></g><g><path d="m467.223 361.454h-259.2c-11.891 0-21.531-9.639-21.531-21.531 0-11.891 9.639-21.531 21.531-21.531h259.2c11.891 0 21.531 9.639 21.531 21.531 0 11.891-9.639 21.531-21.531 21.531z" fill="#f2a88f"/></g><path d="m361.176 210.125 4.284-60.492c.953-13.456-3.775-26.833-12.97-36.703-9.196-9.87-22.206-15.53-35.695-15.53-22.821 0-45.557 0-68.341 0-21.693 0-37.46 13.875-46.864 41.238-4.3 12.512-10.601 30.353-18.748 53.077l-52.076 51.185c-7.983 7.847-8.094 20.679-.248 28.662s20.678 8.095 28.662.248l55.383-54.434c2.175-2.137 3.839-4.737 4.869-7.607 4.767-13.28 12.51-35.093 12.51-35.093l-28.787 150.928c-1.352 6.982 4.004 13.413 11.054 13.413h138.718c7.043 0 12.402-6.454 11.054-13.413l-18.736-96.736 3.526-1.472c7.065-2.952 11.864-9.633 12.405-17.271z" fill="#ffb69e"/><path d="m363.296 180.196 2.165-30.562c.953-13.456-3.775-26.833-12.97-36.703-9.196-9.87-22.206-15.53-35.695-15.53h-11.915c.329 11.264-10.146 20.804-21.083 20.804-11.721 0-20.414-9.505-21.054-20.804h-14.29c-21.693 0-37.46 13.875-46.864 41.238-3.252 9.462-13.126 37.348-13.126 37.348l37.804 12.972c.206 0 .394.026.571.067 2.835-7.963 5.102-14.35 5.102-14.35l-28.787 150.928c-1.352 6.982 4.004 13.413 11.054 13.413h138.718c7.043 0 12.402-6.454 11.054-13.413l-18.736-96.736.804-29.567z" fill="#ff6473"/><path d="m467.223 283.737s-325.964-.06-343.212 0c-13.343.009-24.151 11.296-24.142 24.639l.036 28.935c.009 13.343 10.833 24.151 24.176 24.142l123.939-.087 22.66-34.568h196.542c11.891 0 21.531-9.639 21.531-21.531.001-11.89-9.638-21.53-21.53-21.53z" fill="#ffb69e"/><g><g><path d="m47.386 512c-6.971 0-12.623-5.651-12.623-12.623v-117.798c0-6.972 5.652-12.623 12.623-12.623s12.623 5.651 12.623 12.623v117.798c0 6.972-5.651 12.623-12.623 12.623z" fill="#5a2d19"/></g><g><path d="m465.271 512c-6.971 0-12.623-5.651-12.623-12.623v-117.798c0-6.972 5.652-12.623 12.623-12.623s12.623 5.651 12.623 12.623v117.798c0 6.972-5.652 12.623-12.623 12.623z" fill="#5a2d19"/></g></g><ellipse cx="283.567" cy="42.006" fill="#ffb69e" rx="42.005" ry="42.006" transform="matrix(.099 -.995 .995 .099 213.824 320.054)"/><g><path d="m492.464 391.678h-472.27c-8.366 0-15.148-6.782-15.148-15.148s6.782-15.148 15.148-15.148h472.27c8.366 0 15.148 6.782 15.148 15.148s-6.782 15.148-15.148 15.148z" fill="#965028"/></g><g id="XMLID_5294_"><g id="XMLID_5295_"><path d="m246.501 248.142c-4.314-10.329.563-22.199 10.892-26.513l64.232-26.825 1.145-16.163 40.527 1.555-2.12 29.929c-.541 7.638-5.341 14.319-12.407 17.27l-75.756 31.638c-10.397 4.342-22.227-.628-26.513-10.891z" fill="#ffb69e"/></g></g><path d="m75.881 329.461h-58.523c-4.536 0-8.212 3.677-8.212 8.212v15.598c0 4.535 3.677 8.212 8.212 8.212h58.523c4.535 0 8.212-3.677 8.212-8.212v-15.598c0-4.536-3.677-8.212-8.212-8.212z" fill="#64afff"/><path d="m388.528 279.416h-130.382c-2.849 0-5.159 2.31-5.159 5.159v117.873c0 2.85 2.31 5.159 5.159 5.159h130.381c2.849 0 5.159-2.31 5.159-5.159v-117.873c.001-2.849-2.309-5.159-5.158-5.159z" fill="#64afff"/><g id="XMLID_5289_"><path d="m313.143 361.454c-.037 0-.073 0-.11 0h-173.924c-10.605-.06-19.155-9.681-19.095-20.286.059-10.568 8.755-18.12 19.31-18.12h173.924c10.605.06 19.155 8.705 19.095 19.31-.059 10.569-8.645 19.096-19.2 19.096z" fill="#f2a88f"/></g><ellipse cx="46.765" cy="299.949" fill="#ffb69e" rx="42.375" ry="42.375" transform="matrix(.974 -.225 .225 .974 -66.195 18.176)"/></g></svg>