<?xml version="1.0" encoding="UTF-8"?>
<svg xmlns="http://www.w3.org/2000/svg" xmlns:xlink="http://www.w3.org/1999/xlink" width="55pt" height="55pt" viewBox="0 0 93 93" version="1.1">
<g id="surface1">
<path style=" stroke:none;fill-rule:nonzero;fill:rgb(38.039216%,50.588235%,71.372549%);fill-opacity:1;" d="M 46.5 24.003906 C 21.984375 24.003906 2.113281 34.078125 2.113281 46.5 C 2.113281 58.921875 21.984375 68.996094 46.5 68.996094 C 71.015625 68.996094 90.886719 58.921875 90.886719 46.5 C 90.886719 34.078125 71.015625 24.003906 46.5 24.003906 Z M 34.949219 50.882812 C 33.890625 51.875 32.714844 52.28125 31.417969 52.703125 C 30.125 53.125 28.476562 53.039062 26.46875 53.039062 L 21.925781 53.039062 L 20.667969 60.304688 L 15.363281 60.304688 L 20.097656 35.601562 L 30.296875 35.601562 C 33.367188 35.601562 35.605469 36.484375 37.011719 38.09375 C 38.417969 39.707031 38.84375 41.992188 38.28125 44.878906 C 38.050781 46.070312 37.660156 47.175781 37.109375 48.160156 C 36.558594 49.144531 35.835938 50.066406 34.949219 50.882812 Z M 50.433594 53.039062 L 52.527344 42.5625 C 52.765625 41.335938 52.679688 40.425781 52.265625 39.980469 C 51.851562 39.53125 50.96875 39.234375 49.625 39.234375 L 45.417969 39.234375 L 42.707031 53.039062 L 37.441406 53.039062 L 42.175781 29.0625 L 47.4375 29.0625 L 46.179688 35.601562 L 50.871094 35.601562 C 53.820312 35.601562 55.855469 36.195312 56.972656 37.222656 C 58.09375 38.25 58.429688 39.660156 57.980469 41.964844 L 55.78125 53.039062 Z M 79.683594 44.917969 C 79.453125 46.105469 79.0625 47.195312 78.511719 48.179688 C 77.960938 49.164062 77.242188 50.066406 76.355469 50.882812 C 75.292969 51.875 74.117188 52.28125 72.824219 52.703125 C 71.527344 53.125 69.878906 53.039062 67.875 53.039062 L 63.332031 53.039062 L 62.070312 60.304688 L 56.765625 60.304688 L 61.5 35.601562 L 71.703125 35.601562 C 74.769531 35.601562 77.007812 36.484375 78.414062 38.09375 C 79.820312 39.707031 80.246094 42.03125 79.683594 44.917969 Z M 69.691406 39.234375 L 66.058594 39.234375 L 64.078125 49.40625 L 67.304688 49.40625 C 69.441406 49.40625 71.035156 49.195312 72.082031 48.390625 C 73.128906 47.585938 73.835938 46.335938 74.203125 44.449219 C 74.554688 42.640625 74.394531 41.230469 73.722656 40.484375 C 73.050781 39.742188 71.707031 39.234375 69.691406 39.234375 Z M 28.289062 39.234375 L 24.652344 39.234375 L 22.671875 49.40625 L 25.898438 49.40625 C 28.039062 49.40625 29.628906 49.195312 30.675781 48.390625 C 31.726562 47.585938 32.429688 46.335938 32.796875 44.449219 C 33.148438 42.640625 32.988281 41.230469 32.316406 40.484375 C 31.644531 39.742188 30.304688 39.234375 28.289062 39.234375 Z M 28.289062 39.234375 "/>
</g>
</svg>
